<svg version="1.1" id="Layer_1" xmlns="http://www.w3.org/2000/svg" xmlns:xlink="http://www.w3.org/1999/xlink" x="0px" y="0px"
	width="200vh" height="75px" viewBox="0 0 900 841.89" style="enable-background:new 0 0 595.28 841.89;" xml:space="preserve">
<style type="text/css">
	.st0{fill:#009444;}
</style>
<g>
	<path class="st0" d="M59.2,207.48c0.01,0.6-0.65,0.97-1.97,1.11s-1.98,0.5-1.97,1.1c0.01,0.35,0.04,0.89,0.1,1.6s0.09,1.24,0.1,1.6
		c0.02,1.18-0.01,2.05-0.1,2.61c-0.18,1.22-1.89,2.34-5.11,3.35c-2.64,0.83-4.82,1.26-6.54,1.29c-4.84,0.09-8.79-0.78-11.84-2.59
		c-3.71-2.19-5.6-5.56-5.67-10.12c-0.14-8.27,5.48-12.49,16.87-12.67c1.6-0.02,3.32,0.23,5.17,0.74s2.72,0.77,2.63,0.77
		c0.32-0.01,0.74-0.3,1.25-0.88s0.98-0.87,1.39-0.88c0.32-0.01,0.6,0.05,0.84,0.19c0.28,0.16,0.41,0.39,0.4,0.69
		c-0.01,0.19-0.25,0.96-0.71,2.29c-0.76,2.08-1.6,4.39-2.51,6.93c-0.35,1.03-0.73,1.55-1.13,1.56c-0.42,0.01-0.68-0.16-0.79-0.52
		c-0.05-0.38-0.15-0.92-0.29-1.64c-0.24-0.93-0.63-1.96-1.18-3.06c-0.62-1.27-1.22-2.16-1.8-2.69c-0.79-0.72-1.73-1.07-2.8-1.05
		c-0.86,0.01-1.5,1.41-1.92,4.19c-0.29,1.91-0.42,3.7-0.39,5.37c0.03,1.88,0.32,3.95,0.85,6.22c0.74,3.1,1.69,4.65,2.85,4.62
		c0.83-0.01,1.43-0.53,1.8-1.55c0.27-0.72,0.39-1.58,0.37-2.58c-0.01-0.86-0.14-1.64-0.39-2.35c-0.33-1.01-0.82-1.53-1.45-1.56
		c-1.07-0.05-1.62-0.09-1.63-0.1c-0.66-0.13-0.99-0.48-1-1.06c0-0.21,0.1-0.41,0.3-0.59c0.2-0.18,0.41-0.27,0.62-0.27
		c2.07-0.03,5.48-0.31,10.23-0.82c0.89-0.14,2.21-0.28,3.95-0.44c0.38-0.01,0.71,0.09,1.01,0.31S59.19,207.11,59.2,207.48z"/>
	<path class="st0" d="M105.85,218.95c0.01,0.21-0.23,0.4-0.71,0.56c-0.38,0.12-0.69,0.18-0.93,0.18c-0.78-0.01-1.96-0.06-3.53-0.15
		s-2.74-0.14-3.53-0.15c-0.08,0-0.55,0.02-1.43,0.06c-0.97,0.05-1.67,0.09-2.09,0.1c-0.7,0.01-1.19-0.5-1.47-1.53
		c-0.24-1.08-0.47-2.16-0.71-3.24c-0.41-1.57-0.95-2.83-1.63-3.79c-0.92-1.29-2.15-2.14-3.67-2.55c0.11,2.06,0.15,3.42,0.13,4.06
		c-0.02,0.63-0.11,1.36-0.26,2.19c-0.11,0.53-0.21,1.05-0.32,1.58c-0.1,0.56,0.19,0.84,0.85,0.85c0.62,0.1,1.34,0.2,2.16,0.32
		c0.72,0.11,1.21,0.23,1.48,0.35c0.43,0.21,0.65,0.57,0.66,1.06c0,0.3-0.16,0.54-0.47,0.73c-0.26,0.14-0.52,0.21-0.79,0.21
		c-0.83-0.09-4.81-0.23-11.96-0.42c-1.16-0.02-2.21-0.03-3.16-0.03c-2.26,0-4.47,0.11-6.64,0.34c-0.27,0-0.53-0.09-0.77-0.27
		s-0.37-0.4-0.37-0.66c0.01-0.57,0.46-0.93,1.35-1.08c1.18-0.19,2.18-0.39,3-0.58c0.68-0.16,1.14-0.36,1.39-0.6
		c0.32-0.29,0.49-0.77,0.5-1.45c0.02-1.07-0.02-2.3-0.11-3.68c-0.06-1-0.13-2-0.19-2.99c-0.02-0.5-0.03-1.01-0.03-1.53
		c0-1.32,0.09-2.84,0.26-4.55c0.16-1.68,0.24-2.65,0.24-2.9c-0.01-0.86-0.1-1.43-0.26-1.72c-0.23-0.43-0.71-0.64-1.45-0.64
		c-0.06,0-0.48,0.02-1.24,0.06c-0.72,0.04-1.13,0.06-1.22,0.06c-0.77-0.02-1.21-0.05-1.31-0.1c-0.29-0.11-0.43-0.42-0.42-0.94
		c0.01-0.62,0.72-0.93,2.13-0.93c0.35,0,0.77,0.03,1.26,0.08c1.05,0.02,2.64,0,4.75-0.06s3.69-0.09,4.72-0.06
		c4,0.08,6.27,0.13,6.83,0.18c2.86,0.25,5.03,0.84,6.53,1.79c1.92,1.24,2.86,3.1,2.82,5.61c-0.01,0.86-0.45,1.71-1.32,2.55
		c-0.31,0.31-0.93,0.79-1.87,1.45c3.65,2.67,6.58,5.74,8.8,9.2c0.26,0.4,1.32,0.93,3.17,1.6
		C105.53,217.68,105.81,218.16,105.85,218.95z M91.72,203.4c0.04-2.25-1.24-4.06-3.83-5.43c-0.57-0.3-1.11-0.45-1.61-0.45
		s-0.76,0.3-0.77,0.9c0.18,1.67,0.34,4.03,0.47,7.09c0.73,0.23,1.99,0.35,3.77,0.39C91.03,205.92,91.69,205.09,91.72,203.4z"/>
	<path class="st0" d="M142.65,210.84c0,1.28-0.12,2.6-0.37,3.98c-0.28,1.31-0.56,2.62-0.84,3.93c-0.12,0.59-1.02,0.89-2.69,0.89
		c-0.91,0-2.67-0.03-5.28-0.1s-4.36-0.1-5.28-0.1c-5.46,0-9.88,0.08-13.26,0.24l-3.61,0.16c-0.25,0-0.48-0.12-0.69-0.35
		c-0.19-0.2-0.28-0.4-0.27-0.6c0.01-0.44,0.24-0.73,0.69-0.87c0.21-0.08,0.63-0.12,1.26-0.15c0.43,0,1.15-0.02,2.18-0.05
		c1.57-0.05,2.33-0.83,2.27-2.34c-0.02-0.49-0.11-1.87-0.26-4.12c-0.13-1.79-0.19-3.48-0.19-5.04c0-0.02,0.04-1.14,0.12-3.35
		c0.08-2.21,0.12-3.47,0.12-3.77c0-0.81-0.43-1.44-1.29-1.92c-0.29-0.16-1.36-0.34-3.22-0.55c-1.5-0.18-2.26-0.51-2.26-0.98
		c0-0.61,0.3-0.92,0.89-0.92c-0.25,0,1.04,0.06,3.87,0.17c2.87,0.11,5.9,0.17,9.1,0.17c4.49,0,7.87-0.06,10.13-0.17
		c2.26-0.11,4.29-0.17,6.08-0.17c0.76,0,1.24,0.49,1.43,1.48c0.05,0.29,0.08,1.06,0.08,2.32c0,0.95-0.18,2.21-0.53,3.76
		c-0.15,0.65-0.47,1.01-0.97,1.06c-0.23,0.02-0.44-0.06-0.64-0.23c-0.2-0.18-0.3-0.42-0.31-0.73c-0.01-0.41-0.08-0.74-0.19-1.01
		c-0.61-1.4-1.79-2.45-3.53-3.13c-1.35-0.55-2.84-0.82-4.46-0.82c-0.19,0-0.37,0.08-0.52,0.25c-0.15,0.17-0.23,0.33-0.23,0.49
		c0,0.63,0.02,1.33,0.05,2.11c0.06,1.54,0.1,2.7,0.1,3.47c0,0.69,0.37,1.03,1.11,1.03c0.09,0,0.48-0.04,1.18-0.13
		c0.7-0.09,1.1-0.13,1.18-0.13c1.04,0,1.98,0.14,2.82,0.42c0.62,0.2,0.95,0.91,0.97,2.13c0.02,0.77-0.2,2.11-0.65,4.01
		c-0.19,0.82-0.49,1.22-0.91,1.22c-0.43,0-0.66-0.19-0.68-0.56c-0.01-0.11-0.01-0.28,0-0.52c0-0.28,0-0.47,0-0.58
		c0-0.78-0.39-1.62-1.18-2.5c-0.89-1-1.92-1.5-3.08-1.5c-0.16,0-0.37,0.15-0.63,0.44c-0.01,1.24-0.09,3.12-0.25,5.66
		s-0.23,3.76-0.23,3.67c0,0.52,0.23,0.77,0.69,0.77c1.67,0,3.76-0.85,6.28-2.56c1.71-1.16,2.94-2.21,3.69-3.14
		c0.21-0.27,0.38-0.65,0.51-1.14c0.12-0.49,0.39-0.74,0.8-0.74c0.29,0,0.52,0.16,0.69,0.48
		C142.59,210.42,142.65,210.64,142.65,210.84z"/>
	<path class="st0" d="M187.14,218.51c0,0.86-0.46,1.29-1.37,1.29c-1.08,0-2.71-0.07-4.87-0.2s-3.78-0.2-4.87-0.2
		c-1.15,0-2.88,0.05-5.19,0.14s-4.04,0.14-5.19,0.14c-1.13,0-1.69-0.27-1.69-0.81c0-0.45,0.35-0.76,1.06-0.93
		c0.66-0.13,1.31-0.26,1.97-0.39c0.71-0.2,1.07-0.59,1.08-1.14c0.01-1.07-0.65-1.77-1.98-2.08c-0.62-0.15-1.79-0.22-3.5-0.21h-3.25
		c-1.02,0.01-1.53,0.65-1.53,1.91c0,0.3,0.05,0.76,0.14,1.38s0.14,1.08,0.14,1.38c0,0.52-0.44,0.78-1.32,0.78
		c-0.53,0-1.7-0.53-3.51-1.58c-1.87-1.08-2.8-1.83-2.8-2.24c0-0.7,0.31-1.05,0.93-1.05c0.41,0,0.8,0.11,1.18,0.32
		c0.19,0.11,0.47,0.32,0.84,0.63c0.28,0.23,0.47,0.34,0.58,0.34c0.71,0,1.36-0.75,1.97-2.26c1.18-2.92,3.1-6.44,5.77-10.55
		c0.72-1.11,2.04-2.79,3.95-5.04c2.26-2.65,3.65-3.98,4.19-3.98c0.68,0,1.99,1.34,3.93,4.01c1.59,2.18,2.72,3.92,3.4,5.2
		c0.91,1.76,1.96,4.18,3.14,7.27c0.35,1.17,0.71,2.35,1.08,3.53c0.54,1.68,1.05,2.69,1.53,3.03c0.15,0.11,0.95,0.24,2.4,0.39
		C186.54,217.71,187.14,218.02,187.14,218.51z M165.37,209.76c-1.38-2.05-2.28-3.08-2.71-3.08c-0.41,0-1.04,0.71-1.89,2.14
		c-0.83,1.39-1.24,2.32-1.24,2.8c0,0.32,0.65,0.5,1.95,0.53c0.78-0.02,1.57-0.04,2.37-0.05c0.27,0.02,0.53,0.04,0.79,0.06
		c0.5,0.03,0.9,0.03,1.19,0c0.4-0.05,0.59-0.17,0.58-0.34C166.39,211.44,166.04,210.75,165.37,209.76z"/>
	<path class="st0" d="M230.55,202.96c0,0.38-0.16,0.71-0.49,0.99s-0.67,0.42-1.02,0.41c-0.47-0.01-0.82-0.42-1.05-1.24
		c-0.16-0.59-0.37-1.04-0.61-1.34c-0.16-0.2-0.59-0.6-1.27-1.18c-0.91-0.78-1.98-1.44-3.19-1.96c-1.21-0.52-2.28-0.79-3.19-0.81
		c-0.7-0.02-1.06,0.38-1.08,1.21c0.16,1.84,0.31,4.56,0.44,8.17c-0.02,1.14-0.13,2.9-0.34,5.27c-0.16,2.01-0.23,3.19-0.19,3.54
		c0.08,0.81,0.9,1.23,2.48,1.27c0.55,0.01,1.7,0.19,3.46,0.55c0.92,0.18,1.39,0.66,1.39,1.42c0,0.49-0.55,0.74-1.66,0.74
		c-0.11,0-0.75-0.03-1.92-0.1c-1.21-0.08-1.86-0.11-1.93-0.11c-0.24-0.01-1.43-0.08-3.58-0.19c-1.93-0.12-3.13-0.17-3.59-0.16
		c-1.85,0.04-4.67,0.17-8.46,0.39c-3.41,0.2-5.27,0.3-5.61,0.29c-0.69-0.02-1.03-0.33-1.02-0.93c0.01-0.54,0.52-0.91,1.53-1.11
		c0.89-0.08,2.15-0.22,3.79-0.44c1.08-0.2,1.63-0.6,1.64-1.18c0.01-0.71-0.06-2.05-0.21-4.03c-0.16-2.08-0.24-3.47-0.24-4.16
		c0-1.51,0.08-3.07,0.23-4.66c0.16-1.83,0.25-3.05,0.27-3.66c0.03-1.35-0.33-2.04-1.08-2.06c-1.53-0.04-3.26,0.39-5.2,1.29
		c-1.13,0.52-1.99,1.13-2.58,1.85c-0.38,0.45-0.66,1.15-0.85,2.11c-0.14,0.7-0.55,1.04-1.24,1.03c-0.86-0.01-1.27-0.82-1.22-2.43
		l0.08-3.37c0.04-1.47,0.32-2.4,0.85-2.8c0.52-0.39,1.8-0.59,3.84-0.59c-0.23,0,1.82,0.04,6.12,0.13c3.64,0.08,7.08,0.09,10.31,0.03
		c1.99-0.03,4.98-0.1,8.98-0.21c3.59-0.09,5.4-0.13,5.43-0.13c0.86,0.01,1.38,0.41,1.56,1.21c0.04,0.18,0.18,1.75,0.42,4.71
		L230.55,202.96z"/>
	<path class="st0" d="M286,207.51c0,4.64-1.93,8.04-5.8,10.18c-3.04,1.7-7.08,2.55-12.12,2.55c-4.32,0-7.87-1.12-10.65-3.35
		c-3.02-2.43-4.53-5.75-4.53-9.96c0-4.28,1.74-7.48,5.22-9.62c2.89-1.77,6.61-2.66,11.15-2.66c4.71,0,8.53,0.94,11.47,2.82
		C284.25,199.71,286,203.06,286,207.51z M269.8,197.11c-1.04,0-1.84,1.32-2.4,3.96c-0.39,1.83-0.58,3.59-0.58,5.29
		c0,2.28,0.17,4.48,0.5,6.62c0.52,3.31,1.31,4.96,2.38,4.96c2.06,0,3.09-3.32,3.09-9.97C272.8,200.73,271.8,197.11,269.8,197.11z"/>
	<path class="st0" d="M333.37,195.1c0.04,0.69-0.27,1.16-0.93,1.42c-0.61,0.15-1.22,0.3-1.84,0.44c-0.89,0.26-1.51,0.66-1.85,1.19
		c-0.24,0.39-0.44,1.11-0.61,2.16c-0.1,0.6-0.14,1.92-0.14,3.96c0,4.18-1.02,7.75-3.06,10.72c-2.31,3.36-5.46,5.04-9.44,5.04
		c-4.63,0-8.37-1.04-11.21-3.11c-3.18-2.31-4.88-5.71-5.09-10.2c-0.02-0.45-0.03-0.91-0.03-1.39c0-0.69,0.04-1.71,0.13-3.08
		s0.13-2.38,0.13-3.06c0-0.79-0.42-1.33-1.27-1.61c-0.32-0.11-1.18-0.23-2.58-0.35c-0.97-0.1-1.6-0.22-1.89-0.37
		c-0.32-0.18-0.48-0.54-0.48-1.06c0-0.6,0.53-0.9,1.58-0.9c1.11,0,2.77,0.04,5,0.11c2.23,0.08,3.9,0.11,5.02,0.11c0.38,0,1.71,0,4,0
		c1.62-0.01,2.95-0.01,4,0c0.4,0.01,0.96,0,1.69-0.04c0.78-0.04,1.34-0.06,1.68-0.06c0.95,0,1.42,0.25,1.42,0.76
		c0,0.45-0.27,0.81-0.81,1.08c-0.43,0.2-0.9,0.31-1.42,0.32c-1.56,0.02-2.34,0.59-2.34,1.69c0,0.68,0.05,1.69,0.14,3.04
		c0.09,1.35,0.14,2.36,0.14,3.04c0,0.44,0.01,1.11,0.04,2s0.04,1.56,0.04,2c0,1.55,0.43,2.95,1.3,4.21c0.97,1.4,2.18,2.09,3.62,2.09
		c2.02,0,3.62-1.03,4.8-3.08c1-1.72,1.5-3.67,1.5-5.87c0-1.74-0.19-3.44-0.58-5.11c-0.56-2.37-1.39-3.66-2.48-3.85
		c-0.59-0.06-1.18-0.13-1.77-0.19c-0.79-0.14-1.18-0.45-1.18-0.92c0-0.84,0.5-1.26,1.51-1.26l6.41,0.05c0.69,0,1.69-0.07,3.02-0.22
		c1.33-0.15,2.32-0.22,2.99-0.22C332.75,194.58,333.04,194.76,333.37,195.1z"/>
	<path class="st0" d="M373.96,202.96c0,0.38-0.16,0.71-0.49,0.99c-0.33,0.28-0.67,0.42-1.02,0.41c-0.47-0.01-0.82-0.42-1.05-1.24
		c-0.16-0.59-0.37-1.04-0.61-1.34c-0.16-0.2-0.59-0.6-1.27-1.18c-0.91-0.78-1.98-1.44-3.19-1.96c-1.21-0.52-2.28-0.79-3.19-0.81
		c-0.7-0.02-1.06,0.38-1.08,1.21c0.16,1.84,0.31,4.56,0.44,8.17c-0.02,1.14-0.13,2.9-0.34,5.27c-0.16,2.01-0.23,3.19-0.19,3.54
		c0.08,0.81,0.9,1.23,2.48,1.27c0.55,0.01,1.7,0.19,3.46,0.55c0.92,0.18,1.38,0.66,1.38,1.42c0,0.49-0.55,0.74-1.66,0.74
		c-0.11,0-0.75-0.03-1.92-0.1c-1.21-0.08-1.86-0.11-1.93-0.11c-0.24-0.01-1.43-0.08-3.58-0.19c-1.93-0.12-3.13-0.17-3.59-0.16
		c-1.85,0.04-4.67,0.17-8.46,0.39c-3.41,0.2-5.27,0.3-5.61,0.29c-0.69-0.02-1.03-0.33-1.01-0.93c0.01-0.54,0.52-0.91,1.53-1.11
		c0.89-0.08,2.15-0.22,3.79-0.44c1.08-0.2,1.63-0.6,1.64-1.18c0.01-0.71-0.06-2.05-0.21-4.03c-0.16-2.08-0.24-3.47-0.24-4.16
		c0-1.51,0.08-3.07,0.23-4.66c0.16-1.83,0.25-3.05,0.27-3.66c0.03-1.35-0.33-2.04-1.08-2.06c-1.53-0.04-3.26,0.39-5.2,1.29
		c-1.13,0.52-1.99,1.13-2.58,1.85c-0.38,0.45-0.66,1.15-0.85,2.11c-0.14,0.7-0.55,1.04-1.24,1.03c-0.86-0.01-1.27-0.82-1.22-2.43
		l0.08-3.37c0.04-1.47,0.33-2.4,0.85-2.8c0.52-0.39,1.8-0.59,3.84-0.59c-0.22,0,1.82,0.04,6.12,0.13c3.64,0.08,7.08,0.09,10.31,0.03
		c1.99-0.03,4.98-0.1,8.98-0.21c3.59-0.09,5.4-0.13,5.43-0.13c0.86,0.01,1.38,0.41,1.56,1.21c0.04,0.18,0.18,1.75,0.42,4.71
		L373.96,202.96z"/>
	<path class="st0" d="M410.29,207.36c-0.06,3.97-1.56,7.08-4.48,9.31c-2.62,2-5.8,2.94-9.52,2.82c-5.59-0.18-9.92-0.2-13-0.06
		c-0.58,0.02-1.13-0.03-1.64-0.16c-0.72-0.18-1.07-0.49-1.05-0.92c0.02-0.33,0.2-0.61,0.55-0.82c0.27-0.17,0.5-0.26,0.69-0.26
		c0.1,0,0.66,0.04,1.69,0.11s1.59,0.11,1.69,0.11c0.23,0,0.47-0.07,0.74-0.21c0.33-0.18,0.5-0.4,0.5-0.64
		c0-0.15-0.07-1.57-0.21-4.27c-0.15-2.78-0.23-4.82-0.23-6.11c0-0.48,0.01-0.88,0.03-1.19c0.16-2.64,0.21-4.61,0.14-5.9
		c-0.04-0.82-0.38-1.25-1-1.29c-0.6-0.03-1.28-0.01-2.03,0.06c-0.84,0.09-1.37,0.13-1.59,0.13c-0.16,0-0.35-0.07-0.58-0.21
		s-0.34-0.29-0.34-0.45c0.01-0.62,0.39-1.07,1.13-1.35c0.58-0.21,1.57-0.42,2.96-0.63c1.17-0.16,1.9-0.24,2.17-0.24l8.25-0.21
		C405.4,195.17,410.43,199.3,410.29,207.36z M405.49,207.35c0-2.46-0.4-4.59-1.21-6.4c-0.99-2.25-2.42-3.38-4.29-3.42
		c-0.52-0.01-0.78,0.65-0.8,1.98c-0.02,1.3,0.02,2.66,0.13,4.08c0.11,1.42,0.14,2.81,0.11,4.15c-0.09,3.87-0.12,6.17-0.11,6.9
		c0.03,1.54,0.34,2.31,0.92,2.32c1.53,0.02,2.81-1.08,3.87-3.32C405.03,211.68,405.49,209.58,405.49,207.35z"/>
	<path class="st0" d="M450.66,207.51c0,4.64-1.93,8.04-5.8,10.18c-3.04,1.7-7.08,2.55-12.12,2.55c-4.32,0-7.87-1.12-10.65-3.35
		c-3.02-2.43-4.53-5.75-4.53-9.96c0-4.28,1.74-7.48,5.22-9.62c2.89-1.77,6.61-2.66,11.15-2.66c4.71,0,8.53,0.94,11.47,2.82
		C448.91,199.71,450.66,203.06,450.66,207.51z M434.46,197.11c-1.04,0-1.84,1.32-2.4,3.96c-0.39,1.83-0.58,3.59-0.58,5.29
		c0,2.28,0.17,4.48,0.5,6.62c0.52,3.31,1.31,4.96,2.38,4.96c2.06,0,3.09-3.32,3.09-9.97C437.46,200.73,436.46,197.11,434.46,197.11z
		"/>
	<path class="st0" d="M491.49,207.51c0,4.64-1.93,8.04-5.8,10.18c-3.04,1.7-7.08,2.55-12.12,2.55c-4.32,0-7.87-1.12-10.65-3.35
		c-3.02-2.43-4.53-5.75-4.53-9.96c0-4.28,1.74-7.48,5.22-9.62c2.89-1.77,6.61-2.66,11.15-2.66c4.71,0,8.53,0.94,11.47,2.82
		C489.74,199.71,491.49,203.06,491.49,207.51z M475.29,197.11c-1.04,0-1.84,1.32-2.4,3.96c-0.39,1.83-0.58,3.59-0.58,5.29
		c0,2.28,0.17,4.48,0.5,6.62c0.52,3.31,1.31,4.96,2.38,4.96c2.06,0,3.09-3.32,3.09-9.97C478.29,200.73,477.29,197.11,475.29,197.11z
		"/>
	<path class="st0" d="M539.54,218.95c0.01,0.21-0.23,0.4-0.71,0.56c-0.38,0.12-0.69,0.18-0.93,0.18c-0.78-0.01-1.96-0.06-3.53-0.15
		s-2.74-0.14-3.53-0.15c-0.08,0-0.55,0.02-1.43,0.06c-0.97,0.05-1.67,0.09-2.09,0.1c-0.7,0.01-1.19-0.5-1.47-1.53
		c-0.24-1.08-0.47-2.16-0.71-3.24c-0.41-1.57-0.95-2.83-1.63-3.79c-0.92-1.29-2.15-2.14-3.67-2.55c0.11,2.06,0.15,3.42,0.13,4.06
		c-0.02,0.63-0.11,1.36-0.26,2.19c-0.11,0.53-0.22,1.05-0.32,1.58c-0.1,0.56,0.19,0.84,0.85,0.85c0.62,0.1,1.34,0.2,2.16,0.32
		c0.72,0.11,1.21,0.23,1.48,0.35c0.43,0.21,0.65,0.57,0.66,1.06c0,0.3-0.16,0.54-0.47,0.73c-0.26,0.14-0.52,0.21-0.79,0.21
		c-0.83-0.09-4.81-0.23-11.96-0.42c-1.16-0.02-2.21-0.03-3.16-0.03c-2.26,0-4.47,0.11-6.64,0.34c-0.27,0-0.53-0.09-0.77-0.27
		c-0.25-0.18-0.37-0.4-0.37-0.66c0.01-0.57,0.46-0.93,1.35-1.08c1.18-0.19,2.18-0.39,3-0.58c0.68-0.16,1.14-0.36,1.39-0.6
		c0.32-0.29,0.49-0.77,0.5-1.45c0.02-1.07-0.02-2.3-0.11-3.68c-0.06-1-0.13-2-0.19-2.99c-0.02-0.5-0.03-1.01-0.03-1.53
		c0-1.32,0.09-2.84,0.26-4.55c0.16-1.68,0.24-2.65,0.24-2.9c-0.01-0.86-0.1-1.43-0.26-1.72c-0.22-0.43-0.71-0.64-1.45-0.64
		c-0.06,0-0.48,0.02-1.24,0.06c-0.72,0.04-1.13,0.06-1.22,0.06c-0.77-0.02-1.21-0.05-1.31-0.1c-0.29-0.11-0.43-0.42-0.42-0.94
		c0.01-0.62,0.72-0.93,2.13-0.93c0.35,0,0.77,0.03,1.26,0.08c1.05,0.02,2.64,0,4.75-0.06s3.69-0.09,4.72-0.06
		c4,0.08,6.27,0.13,6.83,0.18c2.86,0.25,5.03,0.84,6.53,1.79c1.92,1.24,2.86,3.1,2.82,5.61c-0.01,0.86-0.45,1.71-1.32,2.55
		c-0.31,0.31-0.94,0.79-1.87,1.45c3.65,2.67,6.58,5.74,8.8,9.2c0.26,0.4,1.32,0.93,3.17,1.6
		C539.22,217.68,539.5,218.16,539.54,218.95z M525.41,203.4c0.04-2.25-1.24-4.06-3.83-5.43c-0.57-0.3-1.11-0.45-1.61-0.45
		c-0.51,0-0.76,0.3-0.77,0.9c0.18,1.67,0.34,4.03,0.47,7.09c0.73,0.23,1.99,0.35,3.77,0.39
		C524.71,205.92,525.38,205.09,525.41,203.4z"/>
	<path class="st0" d="M569.78,210.62c-0.04,2.67-1.22,4.96-3.53,6.85c-2.2,1.79-4.66,2.67-7.36,2.63c-1.68-0.03-3.72-0.37-6.14-1.02
		c-0.46-0.21-1.07-0.44-1.82-0.66c-0.28,0-0.48,0.06-0.6,0.17c-0.12,0.11-0.18,0.3-0.17,0.57c0.03,1.04,0.06,1.45,0.1,1.22
		c-0.06,0.49-0.47,0.74-1.21,0.73c-0.33-0.01-0.63-0.39-0.9-1.14c-1.86-5.3-2.78-8.1-2.77-8.43c0.01-0.62,0.31-0.93,0.9-0.93
		c0.3,0,0.8,0.44,1.5,1.31c0.56,0.81,1.18,1.68,1.85,2.61c1.78,1.91,4.53,2.9,8.25,2.96c0.98,0.02,1.95-0.05,2.92-0.21
		c1.42-0.24,2.13-0.61,2.14-1.11c0.01-0.61-1.03-1.21-3.11-1.8c-1.45-0.4-2.64-0.64-3.58-0.74c-3.02-0.3-5.44-1.34-7.26-3.12
		c-1.82-1.78-2.71-3.96-2.67-6.55c0.11-6.37,4.82-9.47,14.15-9.31c1.32,0.26,3.17,0.53,5.54,0.81c0.63,0.01,1.11-0.4,1.42-1.24
		c0.19-0.55,0.66-0.82,1.4-0.82c0.18,0,0.41,0.08,0.68,0.23s0.41,0.32,0.42,0.52c0.01,0.21-0.1,0.66-0.32,1.34
		c-0.09,0.25-0.63,1.69-1.63,4.33c-0.68,1.78-1.02,2.92-1.03,3.4c-0.01,0.31,0.24,0.84,0.74,1.6c0.67,1,1.13,1.78,1.38,2.35
		C569.57,208.25,569.8,209.41,569.78,210.62z M564.24,201.88l0.02-0.76c0.02-1.11-0.99-2.08-3.05-2.93
		c-1.59-0.66-2.86-0.99-3.8-1.02c-0.78-0.01-1.64,0.08-2.56,0.26c-1.26,0.25-1.89,0.59-1.9,1.03c-0.01,0.34,0.37,0.66,1.13,0.95
		c0.53,0.2,1,0.33,1.43,0.39c0.83,0.15,2.44,0.56,4.83,1.24c2.26,0.64,3.4,0.97,3.43,0.97
		C563.89,201.97,564.05,201.93,564.24,201.88z"/>
</g>
</svg>